inDegrees=no
num_controls=7
num_derivatives=13
num_iterations=138
num_multipliers=7
num_parameters=0
num_slacks=7
num_states=26
objective=6.053434
objective_accelerations=0.361813
objective_balance=0.058442
objective_effort=0.411827
objective_height=5.110820
objective_ligament=0.110532
solver_duration=1180.728169
status=Solve_Succeeded
success=true
DataType=double
version=3
OpenSimVersion=4.4-2022-07-23-0e9fedc
endheader
time	/jointset/ground_pelvis/pelvis_tilt/value	/jointset/ground_pelvis/pelvis_tx/value	/jointset/ground_pelvis/pelvis_ty/value	/jointset/hip_r/hip_flexion_r/value	/jointset/hip_r/hip_adduction_r/value	/jointset/hip_r/hip_rotation_r/value	/jointset/back/lumbar_extension/value	/jointset/patellofemoral_r/patellar_flexion_r/value	/jointset/knee_r/knee_flexion_r/value	/jointset/knee_r/knee_adduction_r/value	/jointset/knee_r/knee_rotation_r/value	/jointset/ankle_r/ankle_angle_r/value	/jointset/subtalar_r/subtalar_angle_r/value	/jointset/ground_pelvis/pelvis_tilt/speed	/jointset/ground_pelvis/pelvis_tx/speed	/jointset/ground_pelvis/pelvis_ty/speed	/jointset/hip_r/hip_flexion_r/speed	/jointset/hip_r/hip_adduction_r/speed	/jointset/hip_r/hip_rotation_r/speed	/jointset/back/lumbar_extension/speed	/jointset/patellofemoral_r/patellar_flexion_r/speed	/jointset/knee_r/knee_flexion_r/speed	/jointset/knee_r/knee_adduction_r/speed	/jointset/knee_r/knee_rotation_r/speed	/jointset/ankle_r/ankle_angle_r/speed	/jointset/subtalar_r/subtalar_angle_r/speed	/forceset/tau_hip_flexion_r	/forceset/tau_hip_adduction_r	/forceset/tau_hip_rotation_r	/forceset/tau_knee_flexion_r	/forceset/tau_ankle_angle_r	/forceset/tau_subtalar_angle_r	/forceset/tau_lumbar_extension	lambda_cid13_p0	lambda_cid14_p0	lambda_cid14_p1	lambda_cid14_p2	lambda_cid14_p3	lambda_cid14_p4	lambda_cid14_p5	/jointset/ground_pelvis/pelvis_tilt/accel	/jointset/ground_pelvis/pelvis_tx/accel	/jointset/ground_pelvis/pelvis_ty/accel	/jointset/hip_r/hip_flexion_r/accel	/jointset/hip_r/hip_adduction_r/accel	/jointset/hip_r/hip_rotation_r/accel	/jointset/back/lumbar_extension/accel	/jointset/patellofemoral_r/patellar_flexion_r/accel	/jointset/knee_r/knee_flexion_r/accel	/jointset/knee_r/knee_adduction_r/accel	/jointset/knee_r/knee_rotation_r/accel	/jointset/ankle_r/ankle_angle_r/accel	/jointset/subtalar_r/subtalar_angle_r/accel	gamma_cid13_p0	gamma_cid14_p0	gamma_cid14_p1	gamma_cid14_p2	gamma_cid14_p3	gamma_cid14_p4	gamma_cid14_p5
1.5	-0.09708406835740634	0.07525009092912749	0.8795499852663746	0.6146184693361908	-0.2241901595593609	-0.1546990453071885	-0.2680930845922164	0.6082013808267309	0.6082013808267499	0.03903031463789949	0.1745252436564804	0.2609310377162641	0.06417202158321246	0.203926207188919	0.09833583822125869	0.2888184806750169	-1.319754620322243	0.01954600930099886	-0.2570965815878085	0.6977711918540747	-1.647223378938667	-1.647223378938665	0.2781424623405163	3.837158709523257e-05	-0.6184064666523162	-0.1559898089817745	-0.05581371919310185	-0.01179022363098526	0.005252875733457701	-0.3040235108863614	0.03029915086389519	-0.01132478872275548	0.1143598426806584	-36.19344513416991	-32.05588652642165	-6.304964224570272	-3.362122088704728	7.224166965774615	-664.2219271307831	55.62556566216594	0.01883555690776581	0.1542154328406304	-0.4153270746213693	-0.5547505707410496	-0.05239189785898237	-0.5052089548820694	1.020678142091544	-0.9123805553766036	-0.9123805553766043	0.414527124033962	-0.0006881469712997165	-0.5036672389867491	-0.08745793773960721	1.018375502170268e-07	1.354317848683661e-07	-5.193333798652627e-07	1.169987418090502e-06	-1.302765680050183e-08	1.542052221485813e-07	-9.125719853579788e-07
1.51	-0.09504429894174075	0.07624101005826912	0.8824167602296943	0.6013950586692064	-0.2239980714513536	-0.1572943685302601	-0.2610651777883922	0.5916858891075445	0.5916858891075539	0.04183417604066016	0.1745257395425907	0.2547224310594834	0.0626069491031072	0.2039984723367163	0.09983083435097721	0.2844777075119578	-1.324741285391005	0.01886974441984068	-0.2619545895668754	0.7077048965889909	-1.655636125278618	-1.655636125278612	0.2826113213892802	5.441500613563166e-05	-0.6232265736424851	-0.1569980879799971	-0.05052131061242641	-0.0135189467451646	0.004619658575523499	-0.3013593189341013	0.03488638125658405	-0.01222208014794515	0.1094424606173809	-36.96149315394347	-30.49140273694817	-6.333614823945982	-3.457058311307349	6.671915865077991	-661.5633008949922	55.66040777185525	-0.002945142914716821	0.1445698477611019	-0.4522412230093245	-0.4426741564826852	-0.0753839975139536	-0.4738836882599216	0.9639257913930758	-0.7699190296418287	-0.7699190296412172	0.4602676380046444	0.001997406804981155	-0.4579248452290771	-0.1034924952667136	1.115130074930561e-07	1.36138639887934e-07	-6.446754435800291e-07	1.191706524115917e-06	-6.869100499543165e-10	1.576525971771831e-07	-1.001624243954931e-06
1.52	-0.09300468030193064	0.07724636477765283	0.8852383697042109	0.5881273714152127	-0.2238127740350196	-0.1599378292268851	-0.2539410921067825	0.5750934304536955	0.5750934304536858	0.04468216650244314	0.174526245226976	0.2484682748495613	0.06103259791013855	0.2038960520193109	0.101222956269667	0.2797853829144488	-1.328609937721321	0.01818787096790061	-0.2667240762995715	0.717006967411967	-1.662616765872067	-1.662616765872057	0.2869682741463367	4.033124370447558e-05	-0.6275163772805421	-0.1578455515543467	-0.0452289020318223	-0.01524766985934849	0.003986441417590202	-0.2986951269818613	0.03947361164926797	-0.01311937157314167	0.104525078554042	-37.69320517489887	-28.93643750033755	-6.360412132835811	-3.556311430916732	6.120594541505493	-659.060433553951	55.7690165749372	-0.01610153613244738	0.1336405906345405	-0.4856373615113429	-0.3311480230519403	-0.05351361201530022	-0.4875047056079588	0.8943513597036301	-0.6259594060761086	-0.6259594060761084	0.3921458656923079	-0.006713583265625267	-0.3976065685647038	-0.05529485296499969	1.209296538064138e-07	1.366862348780641e-07	-7.641359660929167e-07	1.210630478400592e-06	1.112800507396412e-08	1.604657937998538e-07	-1.084287157105925e-06
1.53	-0.09096698051834048	0.07826511477373287	0.8880113543740739	0.5748265933402066	-0.2236343728963053	-0.1626287607626267	-0.2467271510713547	0.5584383458729295	0.55843834587292	0.04757314464682901	0.1745266916437055	0.2421738803084811	0.05945051488131322	0.2036139825661419	0.1025084870054372	0.2747587399523442	-1.331357825727531	0.01749121062480843	-0.2714472242826589	0.7256729207770226	-1.668158134774317	-1.668158134774315	0.2912068387318737	4.43102600574271e-05	-0.6312714931384285	-0.1585444265049207	-0.03989400583436949	-0.017112061901006	0.003372091640208148	-0.2961252681019889	0.04422959255204675	-0.01414366387976823	0.09959901900452776	-38.38459441739609	-27.34139991668708	-6.442298556919472	-3.638843566847685	5.555976100486516	-656.6751761763622	55.82009985520162	-0.03873448687939834	0.1232316050532861	-0.5190666793504325	-0.2184154353104102	-0.07779272369052627	-0.4622592575045655	0.8364694908650301	-0.4819502994143026	-0.4819502994154867	0.4365841389256749	0.003467723679184233	-0.3507895380523443	-0.07319126089982372	1.300713134719329e-07	1.370646160869164e-07	-8.773473510788079e-07	1.226584583960732e-06	2.238422409458917e-08	1.626051758662229e-07	-1.16016139072059e-06
1.54	-0.08893299639668614	0.0792961645351718	0.8907324948311579	0.5615039751359433	-0.2234629484566881	-0.165366431660756	-0.2394298000690878	0.5417351026697351	0.5417351026697004	0.05050588291385575	0.1745270806664927	0.2358446695200909	0.05786224161402192	0.2031529196341731	0.1036829093414427	0.2694165403586301	-1.332977963569929	0.01679253115234615	-0.2760719487795531	0.7336889607804203	-1.672248490361162	-1.672248490361168	0.295320298675073	2.885246014670125e-05	-0.6344796267423874	-0.1590835992473452	-0.03455910963696358	-0.01897645394264533	0.002757741862618386	-0.2935554092221253	0.04898557345482982	-0.01516795618636324	0.09467295945496837	-39.03176358963477	-25.75629921195469	-6.521929415273853	-3.726299882262132	4.991931273930309	-654.4551792598726	55.94941606225703	-0.05190023189209432	0.1114189106812618	-0.5487486878332264	-0.1055979902894851	-0.05391743788924951	-0.4678200083693481	0.7643686873722069	-0.3357567429950281	-0.3357567429950273	0.367124937224622	-0.01060094651838773	-0.2882101177795514	-0.02335441133510808	1.400577668797621e-07	1.379288452707e-07	-1.000537668671763e-06	1.242457973153957e-06	3.389102747480199e-08	1.679991886077527e-07	-1.238768825267582e-06
1.55	-0.08690450280911313	0.08033839338758221	0.8933986968363452	0.5481707660520743	-0.2232985742472121	-0.168150079639283	-0.2320556125850066	0.5249982440650162	0.5249982440650328	0.05347911992457628	0.1745274645885802	0.2294861277675605	0.05626931299852159	0.2025142942614381	0.1047429894242156	0.2637765227497706	-1.333469968878083	0.01608136292616317	-0.2806355467140703	0.7410356466059762	-1.674872445851195	-1.674872445851201	0.2993056704518139	4.182164825358169e-05	-0.6371325536909926	-0.1594755194682782	-0.02914417433937199	-0.02100233385137531	0.00215241869784867	-0.2911371559038895	0.0540074173805836	-0.01634349541162628	0.08970934011476303	-39.63090130616641	-24.09990977015755	-6.662342476041504	-3.795409340855616	4.391523868863933	-652.3395343361892	56.01494083470197	-0.07455599598432336	0.1003322466676565	-0.578692542172603	0.008096632157609885	-0.07976259433353232	-0.4470854105461469	0.7028851160918232	-0.1881286637864858	-0.188128663786422	0.41094384162192	0.006545813544852417	-0.2393833546948679	-0.04316082202708698	1.510175695993834e-07	1.393528558169042e-07	-1.135225452094595e-06	1.258238363054866e-06	4.568654761714852e-08	1.771431019097937e-07	-1.320525382627907e-06
1.56	-0.08488333793648332	0.08139062897873905	0.8960070858164919	0.5348384566017578	-0.2231413209358939	-0.170978654742051	-0.2246113449254835	0.5082426631630673	0.5082426631631002	0.05649155076181757	0.1745278381949203	0.2231039468712842	0.05467325518189983	0.2016871766479063	0.1056842570907272	0.2578539353505222	-1.332798036856791	0.01536835152595383	-0.2850573736307049	0.7477049958693145	-1.675992949812388	-1.675992949812394	0.3031590639774898	2.678931914614361e-05	-0.6392074554913552	-0.1597094394714001	-0.02372923904180164	-0.0230282137600752	0.001547095532735898	-0.2887189025856496	0.05902926130634688	-0.01751903463683967	0.08474572077453113	-40.17997393881149	-22.45294129171838	-6.799911893685139	-3.870105292815021	3.789122539692493	-650.3847124256253	56.16170870493087	-0.08959868005113961	0.08765642742870945	-0.6052626459110524	0.1271894755998452	-0.05428607269444832	-0.4394658047928993	0.6289013749288718	-0.03506643722699578	-0.03506643722699646	0.3407292870114723	-0.01620124996127803	-0.1726050881313219	0.008245632227113622	1.625182465524319e-07	1.425166082790422e-07	-1.275390622480083e-06	1.278309317175459e-06	5.60892744574107e-08	1.957766895812184e-07	-1.405355745735658e-06
